<svg xmlns="http://www.w3.org/2000/svg" width="50" height="41" viewBox="0 0 50 41">
  <defs>
    <style>
      .cls-1 {
        fill: #ff817e;
        fill-rule: evenodd;
      }
    </style>
  </defs>
  <path id="Icon" class="cls-1" d="M24.463,37.984S50.517,24.47,31.141,0a22.744,22.744,0,0,1-8.625,12.836s-9.191,7.6-4.02,18.353c0,0-4.172-3.021-8.829-1.97,0,0-5.181,1.92-9.668-.225,0,0,4.475,17.65,21.412,10.064A15.957,15.957,0,0,1,9.333,35.2s6.342,3.711,12.724,2.5a33.344,33.344,0,0,0,8.706-20.649S32.667,26.268,24.463,37.984ZM47.271,14.019A3.439,3.439,0,0,0,42.55,15.3a3.509,3.509,0,0,0,1.272,4.766,3.413,3.413,0,0,0,2.4.395A32.751,32.751,0,0,1,21.07,40.995s19.418-1.2,27.661-22.574a0.246,0.246,0,0,0,.011-0.054A3.5,3.5,0,0,0,47.271,14.019Z"/>
</svg>
